<svg width="100" height="100" viewBox="0 0 100 100" fill="none" xmlns="http://www.w3.org/2000/svg">
<circle cx="50" cy="50" r="47.5" stroke="#0C0C0B" stroke-width="5"/>
<mask id="mask0_2011_77" style="mask-type:luminance" maskUnits="userSpaceOnUse" x="19" y="21" width="58" height="59">
<path d="M19 21H76.6088V79.5229H19V21Z" fill="white"/>
</mask>
<g mask="url(#mask0_2011_77)">
<path d="M60.302 79.5227C59.9228 79.5227 59.5532 79.4449 59.2032 79.2991C58.8483 79.1532 58.5371 78.9441 58.2648 78.6719C57.9974 78.3996 57.7884 78.0884 57.6425 77.7335C57.4967 77.3786 57.4237 77.0091 57.4237 76.625V69.0939C57.5161 68.2139 57.4237 67.3582 57.1515 66.5219C56.8841 65.6857 56.4513 64.9369 55.8679 64.2806C55.5033 63.8819 55.265 63.42 55.1629 62.8852C55.056 62.3553 55.0949 61.835 55.2796 61.3245C55.4644 60.814 55.7707 60.3911 56.1888 60.0556C56.6118 59.7153 57.0883 59.5111 57.6231 59.443C64.6534 58.6067 71.1343 56.3459 71.1343 44.0891C71.1392 41.7505 70.4926 39.6064 69.2042 37.6616C68.6207 36.7816 68.2318 35.8287 68.0276 34.7931C67.8185 33.7623 67.8185 32.7268 68.0227 31.6912C68.2853 30.3298 68.2853 28.9685 68.0227 27.6072C65.8543 28.3462 63.8463 29.3963 62.0037 30.7674C61.2646 31.2925 60.4576 31.4383 59.5824 31.2001C56.9862 30.4611 54.3364 30.0916 51.6332 30.0916C48.9348 30.0916 46.2851 30.4611 43.684 31.2001C42.8088 31.4383 42.0017 31.2925 41.2627 30.7674C39.4103 29.3818 37.3829 28.3316 35.1853 27.6072C34.9082 28.9685 34.9082 30.3298 35.1853 31.6912C35.3749 32.7413 35.3604 33.7818 35.1464 34.8271C34.9325 35.8676 34.5338 36.8302 33.9455 37.7199C32.6669 39.6793 32.0202 41.8331 32.0154 44.1766C32.0154 55.4465 37.4315 58.4609 45.5558 59.5013C46.1003 59.5694 46.5817 59.7785 47.0095 60.1188C47.4325 60.464 47.7339 60.8967 47.9187 61.4169C48.0888 61.9177 48.118 62.4282 48.0111 62.9484C47.9041 63.4638 47.6707 63.9208 47.3109 64.3098C46.747 64.9224 46.324 65.6176 46.0517 66.4052C45.7746 67.1929 45.6676 68 45.7308 68.8313V76.625C45.7308 77.0091 45.6579 77.3786 45.5072 77.7335C45.3613 78.0884 45.1571 78.3996 44.8848 78.6719C44.6126 78.9441 44.3014 79.1532 43.9514 79.2991C43.5964 79.4449 43.2318 79.5227 42.8477 79.5227C42.4685 79.5227 42.099 79.4449 41.744 79.2991C41.394 79.1532 41.0828 78.9441 40.8106 78.6719C40.5432 78.3996 40.3341 78.0884 40.1882 77.7335C40.0424 77.3786 39.9694 77.0091 39.9694 76.625V74.9719C38.5546 75.1373 37.1398 75.1227 35.725 74.9379C34.315 74.7483 32.944 74.3885 31.6215 73.8634C30.2991 73.3335 29.0593 72.6528 27.9022 71.8166C26.745 70.9803 25.7046 70.0128 24.7857 68.9189C23.8327 67.8541 22.7194 67.0033 21.4455 66.3664C21.076 66.274 20.7357 66.1087 20.4294 65.8802C20.128 65.6468 19.8751 65.3648 19.6807 65.0342C19.4862 64.7036 19.3598 64.3438 19.3063 63.9646C19.2528 63.5853 19.2771 63.2061 19.3695 62.8317C19.4667 62.4622 19.6321 62.1219 19.8606 61.8156C20.0891 61.5044 20.3711 61.2565 20.7017 61.0571C21.0274 60.8627 21.3823 60.7411 21.7616 60.6828C22.1408 60.6293 22.5152 60.6536 22.8847 60.7508C25.1357 61.5725 27.0562 62.8852 28.646 64.689C31.5292 67.5867 34.4074 70.1343 39.8819 69.0939C39.7847 67.5186 40.0035 65.992 40.5432 64.514C34.6116 63.0068 26.1422 58.7186 26.1422 44.2349C26.1324 40.7295 27.0951 37.5109 29.0204 34.5889C29.3851 34.0395 29.5115 33.4415 29.3948 32.7948C28.8016 29.6005 29.1177 26.4986 30.3477 23.494C30.6929 22.6577 31.3007 22.1083 32.1612 21.8409C33.1433 21.5541 36.6536 20.9755 43.3096 25.3172C48.7744 23.9996 54.2343 23.9996 59.6991 25.3172C66.3551 20.9755 69.8654 21.5249 70.8183 21.8409C71.6789 22.1083 72.2866 22.6577 72.6318 23.494C73.8619 26.5084 74.1779 29.62 73.5847 32.824C73.4583 33.4171 73.5653 33.9665 73.9008 34.4722C75.8358 37.4039 76.7936 40.6322 76.779 44.1474C76.779 58.8352 68.3679 63.0943 62.378 64.4264C62.9128 65.9968 63.1219 67.611 63.0101 69.2641V76.625C63.0101 76.9945 62.9469 77.3494 62.8107 77.6946C62.6746 78.035 62.4801 78.3461 62.2322 78.6135C61.9793 78.8809 61.6876 79.0948 61.3522 79.2504C61.0215 79.4109 60.6715 79.4984 60.302 79.5227Z" fill="#0C0C0B"/>
</g>
</svg>
