<svg width="58" height="59" viewBox="0 0 58 59" fill="none" xmlns="http://www.w3.org/2000/svg">
<mask id="mask0_2011_79" style="mask-type:luminance" maskUnits="userSpaceOnUse" x="0" y="0" width="58" height="59">
<path d="M0 0H57.6088V58.5229H0V0Z" fill="white"/>
</mask>
<g mask="url(#mask0_2011_79)">
<path d="M41.302 58.5227C40.9228 58.5227 40.5532 58.4449 40.2032 58.2991C39.8483 58.1532 39.5371 57.9441 39.2648 57.6719C38.9974 57.3996 38.7884 57.0884 38.6425 56.7335C38.4967 56.3786 38.4237 56.0091 38.4237 55.625V48.0939C38.5161 47.2139 38.4237 46.3582 38.1515 45.5219C37.8841 44.6857 37.4513 43.9369 36.8679 43.2806C36.5033 42.8819 36.265 42.42 36.1629 41.8852C36.056 41.3553 36.0949 40.835 36.2796 40.3245C36.4644 39.814 36.7707 39.3911 37.1888 39.0556C37.6118 38.7153 38.0883 38.5111 38.6231 38.443C45.6534 37.6067 52.1343 35.3459 52.1343 23.0891C52.1392 20.7505 51.4926 18.6064 50.2042 16.6616C49.6207 15.7816 49.2318 14.8287 49.0276 13.7931C48.8185 12.7623 48.8185 11.7268 49.0227 10.6912C49.2853 9.32983 49.2853 7.96849 49.0227 6.60716C46.8543 7.34617 44.8463 8.39634 43.0037 9.7674C42.2646 10.2925 41.4576 10.4383 40.5824 10.2001C37.9862 9.4611 35.3364 9.0916 32.6332 9.0916C29.9348 9.0916 27.2851 9.4611 24.684 10.2001C23.8088 10.4383 23.0017 10.2925 22.2627 9.7674C20.4103 8.38176 18.3829 7.33158 16.1853 6.60716C15.9082 7.96849 15.9082 9.32983 16.1853 10.6912C16.3749 11.7413 16.3604 12.7818 16.1464 13.8271C15.9325 14.8676 15.5338 15.8302 14.9455 16.7199C13.6669 18.6793 13.0202 20.8331 13.0154 23.1766C13.0154 34.4465 18.4315 37.4609 26.5558 38.5013C27.1003 38.5694 27.5817 38.7785 28.0095 39.1188C28.4325 39.464 28.7339 39.8967 28.9187 40.4169C29.0888 40.9177 29.118 41.4282 29.0111 41.9484C28.9041 42.4638 28.6707 42.9208 28.3109 43.3098C27.747 43.9224 27.324 44.6176 27.0517 45.4052C26.7746 46.1929 26.6676 47 26.7308 47.8313V55.625C26.7308 56.0091 26.6579 56.3786 26.5072 56.7335C26.3613 57.0884 26.1571 57.3996 25.8848 57.6719C25.6126 57.9441 25.3014 58.1532 24.9514 58.2991C24.5964 58.4449 24.2318 58.5227 23.8477 58.5227C23.4685 58.5227 23.099 58.4449 22.744 58.2991C22.394 58.1532 22.0828 57.9441 21.8106 57.6719C21.5432 57.3996 21.3341 57.0884 21.1882 56.7335C21.0424 56.3786 20.9694 56.0091 20.9694 55.625V53.9719C19.5546 54.1373 18.1398 54.1227 16.725 53.9379C15.315 53.7483 13.944 53.3885 12.6215 52.8634C11.2991 52.3335 10.0593 51.6528 8.90217 50.8166C7.74504 49.9803 6.70459 49.0128 5.78568 47.9189C4.83275 46.8541 3.71937 46.0033 2.44555 45.3664C2.07604 45.274 1.73571 45.1087 1.42941 44.8802C1.12797 44.6468 0.875149 44.3648 0.680673 44.0342C0.486196 43.7036 0.359786 43.3438 0.306304 42.9646C0.252824 42.5853 0.277133 42.2061 0.36951 41.8317C0.466747 41.4622 0.632053 41.1219 0.860563 40.8156C1.08907 40.5044 1.37106 40.2565 1.70167 40.0571C2.02742 39.8627 2.38234 39.7411 2.76157 39.6828C3.1408 39.6293 3.51517 39.6536 3.88467 39.7508C6.13574 40.5725 8.0562 41.8852 9.64604 43.689C12.5292 46.5867 15.4074 49.1343 20.8819 48.0939C20.7847 46.5186 21.0035 44.992 21.5432 43.514C15.6116 42.0068 7.14216 37.7186 7.14216 23.2349C7.13243 19.7295 8.09509 16.5109 10.0204 13.5889C10.3851 13.0395 10.5115 12.4415 10.3948 11.7948C9.80163 8.60054 10.1177 5.49864 11.3477 2.49397C11.6929 1.65773 12.3007 1.10833 13.1612 0.840923C14.1433 0.55407 17.6536 -0.0244976 24.3096 4.31719C29.7744 2.99961 35.2343 2.99961 40.6991 4.31719C47.3551 -0.0244976 50.8654 0.524899 51.8183 0.840923C52.6789 1.10833 53.2866 1.65773 53.6318 2.49397C54.8619 5.50836 55.1779 8.61999 54.5847 11.824C54.4583 12.4171 54.5653 12.9665 54.9008 13.4722C56.8358 16.4039 57.7936 19.6322 57.779 23.1474C57.779 37.8352 49.3679 42.0943 43.378 43.4264C43.9128 44.9968 44.1219 46.611 44.0101 48.2641V55.625C44.0101 55.9945 43.9469 56.3494 43.8107 56.6946C43.6746 57.035 43.4801 57.3461 43.2322 57.6135C42.9793 57.8809 42.6876 58.0948 42.3522 58.2504C42.0215 58.4109 41.6715 58.4984 41.302 58.5227Z" fill="#403E3A"/>
</g>
</svg>
