<svg width="88" height="88" viewBox="0 0 88 88" fill="none" xmlns="http://www.w3.org/2000/svg">
<g clip-path="url(#clip0_7_108)">
<mask id="mask0_7_108" style="mask-type:luminance" maskUnits="userSpaceOnUse" x="0" y="0" width="88" height="87">
<path d="M0.895142 0H87.0976V86.2025H0.895142V0Z" fill="white"/>
</mask>
<g mask="url(#mask0_7_108)">
<path d="M73.3691 86.2025H14.6308C7.06116 86.2025 0.895142 80.0436 0.895142 72.4668V13.7357C0.895142 6.15885 7.06116 0 14.6308 0H73.3691C80.9388 0 87.1048 6.15885 87.1048 13.7357V72.4668C87.1048 80.0436 80.9388 86.2025 73.3691 86.2025ZM14.6308 3.38021C8.92314 3.38021 4.27535 8.02799 4.27535 13.7357V72.4668C4.27535 78.1816 8.92314 82.8223 14.6308 82.8223H73.3691C79.0768 82.8223 83.7246 78.1816 83.7246 72.4668V13.7357C83.7246 8.02799 79.0768 3.38021 73.3691 3.38021H14.6308Z" fill="#0C0C0B"/>
</g>
<path d="M27.099 21.6849C27.099 22.3581 26.9701 23.0026 26.7123 23.6257C26.4545 24.2487 26.0892 24.793 25.6094 25.2728C25.1368 25.7455 24.5853 26.1107 23.9694 26.3685C23.3464 26.6263 22.7019 26.7552 22.0287 26.7552C21.3555 26.7552 20.7038 26.6263 20.0879 26.3685C19.4649 26.1107 18.9135 25.7455 18.4408 25.2728C17.9681 24.793 17.5957 24.2487 17.3451 23.6257C17.0873 23.0026 16.9584 22.3581 16.9584 21.6849C16.9584 21.0118 17.0873 20.3672 17.3451 19.7442C17.5957 19.1211 17.9681 18.5769 18.4408 18.097C18.9135 17.6244 19.4649 17.2592 20.0879 17.0013C20.7038 16.7435 21.3555 16.6146 22.0287 16.6146C22.7019 16.6146 23.3464 16.7435 23.9694 17.0013C24.5853 17.2592 25.1368 17.6244 25.6094 18.097C26.0892 18.5769 26.4545 19.1211 26.7123 19.7442C26.9701 20.3672 27.099 21.0118 27.099 21.6849Z" fill="#0C0C0B"/>
<path d="M16.9584 37.0248H27.099V70.0677H16.9584V37.0248Z" fill="#0C0C0B"/>
<path d="M67.6614 48.92V70.0463H57.1842V56.4395C57.1842 53.267 54.6132 50.6244 51.3548 50.653C48.0677 50.6745 45.5182 53.4388 45.5182 56.5326V70.0677H35.3776V37.0248H45.5182V43.2194C45.5182 43.2194 53.138 34.7188 62.1829 39.9467C65.4342 41.823 67.5397 45.2032 67.6614 48.92Z" fill="#0C0C0B"/>
</g>
<defs>
<clipPath id="clip0_7_108">
<rect width="88" height="88" fill="white"/>
</clipPath>
</defs>
</svg>
