<svg xmlns="http://www.w3.org/2000/svg" xmlns:xlink="http://www.w3.org/1999/xlink" width="64" zoomAndPan="magnify" viewBox="0 0 48 48" height="64" preserveAspectRatio="xMidYMid meet" version="1.0"><defs><clipPath id="503395b5ea"><path d="M 0.488281 15.398438 L 27.671875 15.398438 L 27.671875 46.988281 L 0.488281 46.988281 Z M 0.488281 15.398438 " clip-rule="nonzero"/></clipPath><clipPath id="dd21d10fa9"><path d="M 21.253906 0 L 47.507812 0 L 47.507812 33.796875 L 21.253906 33.796875 Z M 21.253906 0 " clip-rule="nonzero"/></clipPath></defs><g clip-path="url(#503395b5ea)"><path fill="#cfcfc5" d="M 22.511719 36.671875 C 22.207031 36.671875 21.953125 36.875 21.855469 37.160156 C 20.894531 39.941406 18.210938 41.476562 14.757812 41.476562 C 9.722656 41.476562 6.675781 37.671875 6.675781 31.171875 C 6.675781 24.695312 9.722656 20.886719 14.738281 20.886719 C 18.269531 20.886719 21.011719 22.726562 21.914062 25.859375 C 22.003906 26.160156 22.265625 26.378906 22.578125 26.378906 C 22.578125 26.378906 26.378906 26.378906 27.609375 26.378906 C 27.8125 26.378906 27.976562 26.195312 27.949219 25.992188 C 27.144531 19.839844 21.621094 15.398438 14.738281 15.398438 C 5.953125 15.398438 0.5 21.449219 0.5 31.191406 C 0.5 40.921875 5.964844 46.964844 14.757812 46.964844 C 21.667969 46.964844 26.957031 42.996094 27.949219 37.074219 C 27.980469 36.867188 27.820312 36.671875 27.605469 36.671875 Z M 22.511719 36.671875 " fill-opacity="1" fill-rule="nonzero"/></g><g clip-path="url(#dd21d10fa9)"><path fill="#cfcfc5" d="M 37.640625 14.515625 L 33.992188 13.710938 C 30.058594 12.84375 28.550781 11.535156 28.550781 9.480469 C 28.550781 6.875 30.554688 5.105469 34.382812 5.105469 C 37.574219 5.105469 39.660156 6.585938 40.40625 8.71875 C 40.460938 8.875 40.507812 9.035156 40.546875 9.199219 C 40.578125 9.355469 40.605469 9.492188 40.628906 9.617188 C 40.691406 9.960938 40.992188 10.207031 41.34375 10.207031 L 46.050781 10.207031 C 46.25 10.207031 46.445312 10.125 46.582031 9.976562 C 46.71875 9.828125 46.792969 9.628906 46.777344 9.429688 C 46.371094 3.789062 41.457031 0 34.542969 0 C 27.03125 0 21.984375 4.003906 21.984375 9.964844 C 21.984375 14.515625 25.445312 17.269531 31.203125 18.519531 L 35.308594 19.429688 C 39.375 20.339844 40.945312 21.632812 40.945312 23.835938 C 40.945312 26.398438 38.410156 28.4375 34.671875 28.4375 C 31.242188 28.4375 28.699219 27 27.804688 24.894531 C 27.65625 24.515625 27.554688 24.167969 27.484375 23.894531 C 27.402344 23.566406 27.113281 23.335938 26.777344 23.335938 L 21.984375 23.335938 C 21.78125 23.335938 21.585938 23.417969 21.449219 23.570312 C 21.3125 23.71875 21.242188 23.921875 21.261719 24.125 C 21.738281 29.847656 26.867188 33.542969 34.320312 33.542969 C 42.457031 33.542969 47.507812 29.632812 47.507812 23.335938 C 47.507812 18.675781 44.078125 15.914062 37.640625 14.515625 Z M 37.640625 14.515625 " fill-opacity="1" fill-rule="nonzero"/></g></svg>